<?xml version="1.0" standalone="no"?>
<!DOCTYPE svg PUBLIC "-//W3C//DTD SVG 1.1//EN" "http://www.w3.org/Graphics/SVG/1.1/DTD/svg11.dtd" >
<!--
2013-9-30: Created.
-->
<svg>
<metadata>
Created by iconfont
</metadata>
<defs>

<font id="iconfont" horiz-adv-x="1024" >
  <font-face
    font-family="iconfont"
    font-weight="500"
    font-stretch="normal"
    units-per-em="1024"
    ascent="896"
    descent="-128"
  />
    <missing-glyph />
    
    <glyph glyph-name="yonhu" unicode="&#58969;" d="M368.071 362.604c106.49 0 193.128 86.533 193.128 192.894s-86.637 192.892-193.128 192.892-193.128-86.531-193.128-192.892c0-106.362 86.637-192.894 193.128-192.894zM368.071 697.166c78.246 0 141.904-63.552 141.904-141.669 0-78.117-63.658-141.671-141.904-141.671s-141.904 63.553-141.904 141.671c-0 78.116 63.658 141.669 141.904 141.669zM782.22 357.603c50.316 21.135 85.738 70.876 85.738 128.729 0 76.961-62.684 139.573-139.732 139.573-77.048 0-139.731-62.612-139.731-139.573 0-62.971 41.97-116.327 99.431-133.648-44.631-12.485-84.175-39.092-112.365-75.757-56.391 53.006-129.938 82.103-207.992 82.103-80.692 0-156.567-31.094-213.65-87.555-57.158-56.534-88.637-131.723-88.637-211.715 0-5.132 0.132-10.312 0.393-15.398l1.247-24.298h601.293l1.249 24.296c0.262 5.091 0.395 10.271 0.395 15.4 0 18.185-1.644 36.117-4.83 53.642h293.555l1.245 24.301c0.184 3.605 0.277 7.275 0.277 10.906-0 104.698-77.017 191.903-177.885 208.994zM639.717 486.332c0 48.716 39.704 88.348 88.508 88.348s88.509-39.633 88.509-88.348c0-48.717-39.705-88.35-88.509-88.35s-88.508 39.634-88.508 88.35zM116.771 71.287c6.118 131.442 116.272 236.52 250.797 236.52 134.526 0 244.679-105.078 250.798-236.52h-501.595zM650.843 164.625c-9.828 26.062-23.338 50.706-40.301 73.281 29.898 44.148 80.53 71.522 135.466 71.522 84.339 0 153.91-63.614 162.073-144.803h-257.239z"  horiz-adv-x="1024" />

    
    <glyph glyph-name="liebiao" unicode="&#58926;" d="M475.09702 482.212836c0-40.939411-33.497928-74.437339-74.437339-74.437339L136.096143 407.775496c-40.940434 0-74.437339 33.497928-74.437339 74.437339L61.658803 758.039905c0 40.939411 33.495882 74.437339 74.437339 74.437339l264.565585 0c40.939411 0 74.437339-33.496905 74.437339-74.437339L475.09702 482.212836 475.09702 482.212836zM475.09702 9.947815c0-40.940434-33.497928-74.435293-74.437339-74.435293L136.096143-64.487477c-40.940434 0-74.437339 33.494858-74.437339 74.435293l0 275.821953c0 40.940434 33.495882 74.435293 74.437339 74.435293l264.565585 0c40.939411 0 74.437339-33.495882 74.437339-74.435293L475.09702 9.947815 475.09702 9.947815zM958.619432 482.212836c0-40.939411-33.495882-74.437339-74.437339-74.437339L619.603205 407.775496c-40.942481 0-74.436316 33.497928-74.436316 74.437339L545.166889 758.039905c0 40.939411 33.495882 74.437339 74.436316 74.437339l264.580934 0c40.940434 0 74.436316-33.496905 74.436316-74.437339L958.619432 482.212836zM958.623525 9.947815c0-40.940434-33.497928-74.435293-74.437339-74.435293L619.604228-64.487477c-40.941458 0-74.436316 33.494858-74.436316 74.435293l0 275.821953c0 40.940434 33.495882 74.435293 74.436316 74.435293l264.581957 0c40.940434 0 74.437339-33.495882 74.437339-74.435293L958.623525 9.947815z"  horiz-adv-x="1024" />

    
    <glyph glyph-name="fenxiang" unicode="&#58915;" d="M914.735 84.827c0 79.745-65.557 144.413-146.471 144.413-52.384 0-98.015-27.361-123.858-68.141l-246.16 178.265c2.303 10.034 3.908 20.258 3.908 30.99 0 0.489-0.105 0.942-0.105 1.396 0 0.611 0.105 1.17 0.105 1.78 0 13.061-2.444 25.519-5.863 37.526l265.861 173.055c26.646-27.753 64.181-45.343 106.061-45.343 80.913 0 146.471 64.66 146.471 144.404 0 0.506-0.174 1.064-0.174 1.57 0 0.612 0.174 1.108 0.174 1.615 0 79.744-65.557 144.351-146.471 144.351-80.863 0-146.421-64.607-146.421-144.351 0-0.672 0.106-1.17 0.106-1.841 0-0.507-0.106-0.952-0.106-1.344 0-11.333 1.833-22.17 4.467-32.666l-267.711-174.223c-26.471 25.737-62.767 41.661-102.796 41.661-80.931 0-146.489-64.617-146.489-144.361 0-0.558 0.157-1.064 0.157-1.622 0-0.559-0.157-1.065-0.157-1.554 0-79.744 65.558-144.412 146.489-144.412 43.153 0 81.577 18.81 108.379 48.074l257.941-186.903c-0.122-0.786-0.228-1.501-0.228-2.338 0-0.507 0.158-1.064 0.158-1.571-0.052-0.558-0.158-1.116-0.158-1.622 0-79.728 65.559-144.343 146.421-144.343 80.913 0 146.471 64.616 146.471 144.343 0 0.558-0.174 1.116-0.174 1.622-0 0.506 0.174 1.116 0.174 1.571zM768.159 775.412c49.366 0 89.378-40.020 89.378-89.377 0-49.348-40.011-89.394-89.378-89.394-49.383 0-89.393 40.047-89.393 89.394 0 49.356 40.010 89.377 89.393 89.377zM256.659 281.71c-49.347 0-89.377 40.047-89.377 89.394 0 49.356 40.030 89.377 89.377 89.377 49.383 0 89.411-40.019 89.411-89.377 0.001-49.347-40.029-89.394-89.411-89.394zM768.159-6.853c-49.383 0-89.393 40.047-89.393 89.394s40.011 89.377 89.393 89.377c49.366 0 89.378-40.030 89.378-89.377 0-49.348-40.011-89.394-89.378-89.394z"  horiz-adv-x="1024" />

    
    <glyph glyph-name="time" unicode="&#59203;" d="M512 725.333c188.203 0 341.333-153.131 341.333-341.333s-153.131-341.333-341.333-341.333-341.333 153.131-341.333 341.333 153.131 341.333 341.333 341.333zM512 810.667c-235.648 0-426.667-191.019-426.667-426.667s191.019-426.667 426.667-426.667 426.667 191.019 426.667 426.667-191.019 426.667-426.667 426.667l0 0zM682.667 341.333l-213.333 0 0 298.667 85.333 0 0-213.333 128 0z"  horiz-adv-x="1024" />

    
    <glyph glyph-name="wendang2" unicode="&#58966;" d="M288.393781 429.434795c0-12.593829 9.975189-22.834055 22.323425-22.834055l395.080104 0c12.389168 0 22.366404 10.240225 22.366404 22.834055l0 22.812565c0 12.614296-9.977235 22.837124-22.366404 22.837124L310.717206 475.084485c-12.348236 0-22.323425-10.222829-22.323425-22.837124L288.393781 429.434795zM310.717206 574.027961l395.080104 0c12.389168 0 22.366404 10.201339 22.366404 22.812565l0 22.815635c0 12.611226-9.977235 22.834055-22.366404 22.834055L310.717206 642.490216c-12.348236 0-22.323425-10.222829-22.323425-22.834055l0-22.815635C288.393781 584.229301 298.36897 574.027961 310.717206 574.027961zM288.393781 262.028041c0-12.590759 9.975189-22.816658 22.323425-22.816658l323.491649 0c12.345166 0 22.405289 10.225899 22.405289 22.816658l0 22.837124c0 12.611226-10.0591 22.830985-22.405289 22.830985L310.717206 307.69615c-12.348236 0-22.323425-10.218736-22.323425-22.830985L288.393781 262.028041zM869.791337 832.735118 154.205593 832.735118c-16.4783 0-29.846772-13.637602-29.846772-30.439266l0-836.611146c0-16.800641 13.368472-30.4188 29.846772-30.4188l377.090381 0 0 76.030627L223.876372 11.296533c-13.820774 0-24.942065 11.446703-24.942065 25.533536L198.934307 731.091136c0 14.105253 11.121292 25.533536 24.942065 25.533536l576.24521 0c13.779841 0 24.942065-11.428284 24.942065-25.533536l0-536.564465L657.841088 194.526671c-16.479323 0-16.766872-3.149736-16.766872-19.932981L641.074216-64.734094l83.980693 0 174.420495 179.492 0.162706 0L899.638109 802.294828C899.639133 819.096493 886.267591 832.735118 869.791337 832.735118zM698.481693 25.013953l0 59.813271c0 14.104229 15.207353 33.692357 29.028127 33.692357l72.325235 0L698.481693 25.013953z"  horiz-adv-x="1024" />

    
    <glyph glyph-name="video" unicode="&#58932;" d="M945.643 661.942h-34.627c-9.585 0-17.325-8.19-17.325-18.338v3.938l-173.137-183.352v161.1c0 40.5-31.028 73.35-69.278 73.35h-519.457c-38.25 0-69.278-32.828-69.278-73.35v-476.73c0-40.477 31.005-73.328 69.278-73.328h519.457c38.25 0 69.278 32.85 69.278 73.328v161.123l173.137-183.33v3.893c0-10.102 7.74-18.315 17.325-18.315h34.627c9.562 0 17.325 8.213 17.325 18.315v513.36c0 10.148-7.762 18.338-17.325 18.338zM651.275 390.84l-3.713-3.915 3.713-3.915v-234.45h-519.457v476.73h519.457v-234.45zM893.713 230.078l-148.162 156.847 148.162 156.87v-313.717z"  horiz-adv-x="1026" />

    
    <glyph glyph-name="other" unicode="&#59054;" d="M91.657 737.972v-707.943h840.686v707.943h-840.686zM890.131 75.039h-753.384l-0.038 615.080 753.421-0.039v-615.040zM289.362 453.97c-38.623 0-69.97-31.311-69.97-69.97 0-38.662 31.347-69.971 69.97-69.971 38.624 0 69.971 31.346 69.971 69.971-0.001 38.624-31.313 69.97-69.971 69.97v0zM512.001 453.97c-38.663 0-69.97-31.347-69.97-69.97 0-38.625 31.308-69.971 69.97-69.971 38.66 0 69.934 31.346 69.934 69.971 0 38.624-31.274 69.97-69.934 69.97v0zM734.637 453.97c-38.659 0-69.969-31.347-69.969-69.97 0-38.625 31.346-69.971 69.969-69.971 38.625 0 69.971 31.346 69.971 69.971 0 38.624-31.346 69.97-69.971 69.97v0zM734.637 453.97z"  horiz-adv-x="1024" />

    
    <glyph glyph-name="tupian2" unicode="&#58904;" d="M335.36 455.68c38.4 0 71.68 30.72 71.68 71.68 0 38.4-30.72 71.68-71.68 71.68-38.4 0-71.68-30.72-71.68-71.68 2.56-40.96 33.28-71.68 71.68-71.68z m0 0M652.8 499.2L445.44 204.8l-107.52 151.04-179.2-253.44h704l-209.92 396.8z m0 0M934.4 788.48h-844.8c-20.48 0-35.84-15.36-35.84-35.84v-739.84c0-20.48 15.36-35.84 35.84-35.84h844.8c20.48 0 35.84 15.36 35.84 35.84V752.64c0 20.48-15.36 35.84-35.84 35.84z m-35.84-739.84H125.44V719.36h775.68v-670.72h-2.56z m0 0"  horiz-adv-x="1024" />

    
    <glyph glyph-name="huishouzhan1" unicode="&#58906;" d="M896 640v-576a128 128 0 0 0-128-128H256a128 128 0 0 0-128 128V640H64V704h192V768a64 64 0 0 0 64 64h384a64 64 0 0 0 64-64v-64h192v-64h-64z m-192 128H320v-64h384V768z m128-128H192v-576a64 64 0 0 1 64-64h512a64 64 0 0 1 64 64V640zM576 512h64v-384H576V512zM384 512h64v-384H384V512z"  horiz-adv-x="1024" />

    
    <glyph glyph-name="jiaoseguanli1" unicode="&#58952;" d="M691.712 268.064c-41.728 0-75.648-33.888-75.648-75.552s33.952-75.616 75.648-75.616 75.68 33.952 75.68 75.616-33.952 75.552-75.68 75.552z m0-112.256a36.704 36.704 0 0 0-36.672 36.672 36.704 36.704 0 0 0 73.344 0 36.672 36.672 0 0 0-36.672-36.672z m200.064 76.128c-2.848 15.008-12.48 24.736-24.8 24.736h-1.728a42.816 42.816 0 0 0-42.816 42.752c0 6.176 2.688 13.76 3.712 16.192 5.888 13.12 1.376 29.312-11.648 38.304l-50.08 27.712a34.016 34.016 0 0 1-36.608-7.296c-6.208-6.464-22.784-19.744-34.176-19.744-11.552 0-28.224 13.568-34.432 20.064a33.92 33.92 0 0 1-36.544 7.616l-0.96-0.384-50.976-28-1.184-0.736a30.944 30.944 0 0 1-10.592-37.44c0.416-0.928 3.808-9.248 3.808-16.32a42.88 42.88 0 0 0-42.88-42.752h-2.016c-12.064 0-21.664-9.76-24.512-24.736-0.448-2.24-4.224-23.008-4.224-39.744 0-16.672 3.776-37.44 4.224-39.744 2.848-14.944 12.448-24.64 24.8-24.64h1.696c23.616 0 42.88-19.2 42.88-42.816 0-6.112-2.72-13.76-3.744-16.192-5.888-13.12-1.376-29.248 11.584-38.24l49.152-27.36a33.376 33.376 0 0 1 36.832 7.68c6.048 6.56 23.264 20.928 34.976 20.928 11.904 0 28.864-14.368 35.264-21.312 5.92-6.528 15.072-10.464 24.384-10.464a31.776 31.776 0 0 1 13.632 3.136l49.696 27.36 1.184 0.8a30.848 30.848 0 0 1 10.56 37.376 49.856 49.856 0 0 0-3.776 16.32 42.88 42.88 0 0 0 42.816 42.816h2.016c12.064 0 21.696 9.696 24.512 24.64-0.032 0.192 4.192 22.176 4.192 39.744 0 16.736-3.808 37.504-4.224 39.744z m-37.248-65.888a81.696 81.696 0 0 1-71.104-81.056c0-9.504 2.304-18.56 4.352-24.736l-35.872-19.744c-3.2 3.2-8.352 7.808-14.72 12.576-15.872 11.744-31.232 17.76-45.664 17.76-14.272 0-29.504-5.888-45.248-17.376a147.328 147.328 0 0 1-14.656-12.384l-34.272 19.136c2.048 6.176 4.384 15.328 4.384 24.8a81.696 81.696 0 0 1-71.104 81.056 191.808 191.808 0 0 0-2.464 26.112c0 8.672 1.44 19.488 2.464 26.176a81.792 81.792 0 0 1 71.104 81.056c0 9.504-2.304 18.56-4.352 24.736l37.024 20.32c3.2-3.072 8.352-7.616 14.656-12.128 15.552-11.136 30.528-16.672 44.576-16.672 13.856 0 28.672 5.504 44.128 16.384 6.272 4.384 11.36 8.8 14.592 11.808l35.456-19.68a80.32 80.32 0 0 1-4.384-24.736c0-41.312 30.752-75.744 71.104-81.056 1.056-6.752 2.464-17.632 2.464-26.176s-1.408-19.424-2.464-26.176zM178.56 55.36v42.816c0 145.632 112.384 265.568 255.488 279.072l-0.064 0.064h0.384c8.768 0.8 17.664 1.28 26.656 1.28l4.032-0.096c31.648 2.432 79.52 9.888 104.576 32.192l12.288 9.568c47.84 37.376 75.328 93.12 75.328 153.056C657.216 680.672 569.184 768 460.96 768c-108.192 0-196.224-87.328-196.224-194.688 0-59.936 27.424-115.68 75.328-153.056l12.256-9.568-14.432-5.696C210.368 354.4 128 233.984 128 98.176v-67.872c0-13.76 11.328-24.992 25.28-24.992h369.472a255.776 255.776 0 0 0-30.56 50.048H178.56z m136.768 517.952c0 79.712 65.344 144.608 145.664 144.608 80.352 0 145.696-64.832 145.696-144.608s-65.344-144.64-145.696-144.64c-80.32 0-145.664 64.896-145.664 144.64z"  horiz-adv-x="1024" />

    
    <glyph glyph-name="jiankong" unicode="&#59322;" d="M599.28 345.675l-88.02 226.372-96.119-180.845-53.647 55.186-90.776-56.565 25.607-14.764 58.172 36.255 70.188-72.267 81.272 152.872 89.862-231.24 76.63 161.338 31.234-66.458 34.24 5.74L672.64 500.14z m267.893-175.414V639.328c0 17.551-13.084 31.741-29.245 31.741H187.113c-16.16 0-29.244-14.191-29.244-31.741v-469.067H61.957v-38.799c0-17.556 13.104-31.74 29.245-31.74h845.83c16.161 0 29.265 14.185 29.265 31.74v38.799h-99.123z m-293.149-13.32h-119.8v20.597h119.8v-20.597z m232.98 51.886H218.059V605.633h588.945v-396.806z m0 0z"  horiz-adv-x="1024" />

    
    <glyph glyph-name="qita1" unicode="&#58991;" d="M725.333333 768H298.666667C179.2 768 85.333333 674.133333 85.333333 554.666667v-341.333334c0-119.466667 93.866667-213.333333 213.333334-213.333333h426.666666c119.466667 0 213.333333 93.866667 213.333334 213.333333V554.666667c0 119.466667-93.866667 213.333333-213.333334 213.333333z m128-554.666667c0-72.533333-55.466667-128-128-128H298.666667c-72.533333 0-128 55.466667-128 128V554.666667c0 72.533333 55.466667 128 128 128h426.666666c72.533333 0 128-55.466667 128-128v-341.333334zM384 512H341.333333c-25.6 0-42.666667-17.066667-42.666666-42.666667s17.066667-42.666667 42.666666-42.666666h42.666667c25.6 0 42.666667 17.066667 42.666667 42.666666s-17.066667 42.666667-42.666667 42.666667zM597.333333 512h-42.666666c-25.6 0-42.666667-17.066667-42.666667-42.666667s17.066667-42.666667 42.666667-42.666666h42.666666c25.6 0 42.666667 17.066667 42.666667 42.666666s-17.066667 42.666667-42.666667 42.666667z"  horiz-adv-x="1024" />

    
    <glyph glyph-name="huabanzhuti" unicode="&#58980;" d="M511.6 783.5c-291.8 0-399.7-255-399.7-398s103.8-400.6 391.3-400.6c0 0 71.4-1.3 71.4 63.2 0 64.4-32.1 43.8-32.1 90.1 0 46.4 32.1 67 47.5 67 15.4 0 117-7.7 173.6 14.3 56.5 21.7 147.7 91.3 147.7 209.8 0 104.3-107.9 354.2-399.7 354.2zM267.9 384.1c-18.4 0-36.1 7.3-49.2 20.4-13 13.1-20.3 30.8-20.3 49.2-0.7 25.3 12.3 48.9 34.1 61.8 21.8 12.9 48.8 12.9 70.6 0 21.8-12.9 34.8-36.5 34.1-61.8 0.2-38.3-30.9-69.5-69.3-69.6z m130.9 172.2c-18.4 0-36.1 7.3-49.1 20.4-13 13-20.3 30.7-20.3 49.2 0 38.3 31.1 69.4 69.4 69.4 38.3 0 69.4-31.1 69.4-69.4 0.1-38.5-31-69.6-69.4-69.6z m222.6 0c-38.3 0-69.4 31.1-69.4 69.6-0.7 25.3 12.3 48.9 34.1 61.8a69.7 69.7 0 0 0 70.6 0c21.8-12.9 34.8-36.5 34.1-61.8 0.1-38.5-31-69.6-69.4-69.6z m132.2-172.2c-38.3 0-69.4 31.1-69.4 69.6-0.7 25.3 12.3 48.9 34.1 61.8 21.8 12.9 48.8 12.9 70.6 0 21.8-12.9 34.8-36.5 34.1-61.8 0.1-18.4-7.2-36.1-20.2-49.2-13.1-13-30.7-20.4-49.2-20.4z m0 0"  horiz-adv-x="1024" />

    
    <glyph glyph-name="wenjianjia1" unicode="&#58920;" d="M859.5 703H446.939c-1.851 53.25-45.747 96-99.439 96h-183C109.635 799 65 754.365 65 699.5v-632c0-54.864 44.635-99.5 99.5-99.5h695c54.864 0 99.5 44.636 99.5 99.5v536c0 54.865-44.636 99.5-99.5 99.5z m-695 33h183c20.126 0 36.5-16.374 36.5-36.5v-28c0-17.397 14.103-31.5 31.5-31.5h444c20.126 0 36.5-16.374 36.5-36.5V575H128V699.5c0 20.126 16.374 36.5 36.5 36.5z m695-705h-695c-20.126 0-36.5 16.374-36.5 36.5V512h768v-444.5c0-20.126-16.374-36.5-36.5-36.5z"  horiz-adv-x="1024" />

    
    <glyph glyph-name="APIkey" unicode="&#59005;" d="M324.905 679.834a34.458 34.458 0 0 1-51.098 0L10.997 415.078a37.478 37.478 0 0 1 0-52.992l255.489-264.755a34.458 34.458 0 0 1 51.097 0 37.478 37.478 0 0 1 0 52.941L91.28 384.768l233.626 242.125a66.765 66.765 0 0 1 0 52.94z m262.81 0c-14.644 0-36.506-7.527-43.828-30.208l-131.379-514.56c-7.321-22.682 7.27-37.786 29.184-45.364 21.914-7.577 36.506 7.578 43.776 30.208l131.43 514.51c7.271 15.103-7.321 37.836-29.183 45.362z m430.694-264.756L762.921 679.834a34.458 34.458 0 0 1-51.149 0 37.478 37.478 0 0 1 0-52.941l226.304-242.074-233.574-242.125a37.478 37.478 0 0 1 0-52.94 34.458 34.458 0 0 1 51.097 0l255.488 264.806c14.592 15.104 14.592 45.363 7.322 60.518z"  horiz-adv-x="1024" />

    
    <glyph glyph-name="quanxianpeizhi" unicode="&#58996;" d="M837.2 711.8c-12.3 16.4-29.2 28.1-48.8 33.9l-231 67.8c-29.7 8.7-61.1 8.7-90.9 0l-231-67.8c-19.7-5.8-36.6-17.5-48.8-33.9S168 675.9 168 655.4v-372.8c0-20.2 6.3-39.5 18.3-55.8 25.5-34.6 77-101.6 135.4-161.2 77.7-79.2 139.9-117.7 190.3-117.7s112.6 38.5 190.3 117.7c58.5 59.6 109.9 126.5 135.4 161.2 12 16.3 18.3 35.6 18.3 55.8V655.4c0 20.5-6.5 40-18.8 56.4zM808 282.6c0-9.9-3.1-19.4-9-27.3-24.7-33.6-74.6-98.5-131-156C579.8 9.4 532.4-4 512-4s-67.8 13.4-156 103.3c-56.4 57.5-106.3 122.4-131 156-5.9 8-9 17.4-9 27.4V655.4c0 20.3 13.6 38.5 33.1 44.3l231 67.8c20.9 6.1 42.9 6.1 63.8 0l231-67.8c19.5-5.7 33.1-23.9 33.1-44.3v-372.8zM638 518c0 70-57 127-127 127s-127-57-127-127c0-62.5 45.4-114.6 105-125.1V137c0-4.4 3.6-8 8-8h32c4.4 0 8 3.6 8 8V249c0 4.4 3.6 8 8 8h54c4.4 0 8 3.6 8 8v32c0 4.4-3.6 8-8 8h-54c-4.4 0-8 3.6-8 8v80.7c57.6 12 101 63.2 101 124.3z m-127-79c-43.6 0-79 35.4-79 79s35.4 79 79 79 79-35.4 79-79-35.4-79-79-79z"  horiz-adv-x="1024" />

    
    <glyph glyph-name="qita" unicode="&#58918;" d="M486.4 332.8h51.2a25.6 25.6 0 0 1 25.6 25.6v51.2a25.6 25.6 0 0 1-25.6 25.6h-51.2a25.6 25.6 0 0 1-25.6-25.6v-51.2a25.6 25.6 0 0 1 25.6-25.6z m-153.6 0h51.2a25.6 25.6 0 0 1 25.6 25.6v51.2a25.6 25.6 0 0 1-25.6 25.6h-51.2a25.6 25.6 0 0 1-25.6-25.6v-51.2a25.6 25.6 0 0 1 25.6-25.6zM819.2 742.4H204.8a102.4 102.4 0 0 1-102.4-102.4v-512a102.4 102.4 0 0 1 102.4-102.4h614.4a102.4 102.4 0 0 1 102.4 102.4V640a102.4 102.4 0 0 1-102.4 102.4z m0-614.4H204.8V640h614.4z m-179.2 204.8h51.2a25.6 25.6 0 0 1 25.6 25.6v51.2a25.6 25.6 0 0 1-25.6 25.6h-51.2a25.6 25.6 0 0 1-25.6-25.6v-51.2a25.6 25.6 0 0 1 25.6-25.6z"  horiz-adv-x="1024" />

    
    <glyph glyph-name="yinle2" unicode="&#58882;" d="M364 462.338V86c0-82.843-67.157-150-150-150S64 3.157 64 86s67.157 150 150 150c25.282 0 49.103-6.255 70-17.3V495.323a39.861 39.861 0 0 0 0 1.446V696c0 19.455 13.998 36.089 33.168 39.412l548 95C889.626 834.652 912 815.823 912 791v-199.324c0.009-0.484 0.009-0.965 0-1.446V182c0-82.843-67.157-150-150-150s-150 67.157-150 150 67.157 150 150 150c25.282 0 49.103-6.255 70-17.3V543.47l-468-81.132z m0 81.193l468 81.131V743.47l-468-81.131V543.53zM214 16c38.66 0 70 31.34 70 70s-31.34 70-70 70-70-31.34-70-70 31.34-70 70-70z m548 96c38.66 0 70 31.34 70 70s-31.34 70-70 70-70-31.34-70-70 31.34-70 70-70z"  horiz-adv-x="1024" />

    
    <glyph glyph-name="kuozhan" unicode="&#58909;" d="M537.8-29.5h-28.9v83.6c-0.1 38.2-31.4 69.4-69.7 69.4s-69.6-31.2-69.7-69.5v-83.5H202c-56.1 0.1-101.8 45.8-101.9 101.8V240h83.6c25.8-0.5 49.2 12.7 61.9 34.5s12.7 48.7 0 70.4c-12.7 21.7-36.3 35-61.4 34.5H100V547c0.1 56.1 45.8 101.7 101.8 101.9H319v25.9c0.2 66.1 54.1 119.9 120.1 119.9S559 741 559.2 674.9V649h117.1c56.1-0.2 101.8-45.8 101.9-101.8V430h26c66.1-0.2 119.8-54.1 119.8-120.1S870.3 190 804.2 189.8h-25.9v-117.1c-0.1-56.1-45.8-101.8-101.8-101.9H537.8z m28.9 57.8h109.8c24.2 0.1 44.1 19.9 44.1 44.2V247.3h83.6c34.2 0.1 62.1 28.1 62.1 62.4s-27.9 62.2-62.1 62.4h-83.7V547c-0.1 24.2-19.9 44.1-44.2 44.1H501.6v83.6c-0.1 34.2-28.1 62.1-62.4 62.1s-62.3-27.9-62.4-62.2v-83.5H202c-24.2-0.1-44.1-19.9-44.1-44.2v-109.8h25.9c45.2 0.5 88.5-23.3 111.8-63 23.3-39.7 23.3-89.1 0-128.8-23.2-39.7-66-64.2-112.3-63H158v-109.8c0.1-24.2 19.9-44.1 44.2-44.1H312v25.8c0.2 70.2 57.4 127.2 127.5 127.2s127.3-57 127.4-127.1v-26z"  horiz-adv-x="1024" />

    
    <glyph glyph-name="dingbudaohang-zhangh" unicode="&#59155;" d="M513-60.3c-247.7 0-448 200.3-448 448S265.3 829.8 513 829.8s448-200.3 448-448-200.3-442.1-448-442.1z m0 830.9c-212.2 0-388.8-170.7-388.8-388.8C124.2 169.7 294.9-7 513-7c212.2 0 388.8 170.7 388.8 388.8S725.2 770.6 513 770.6z m0-430.2c-94.2 0-170.7 76.5-170.7 170.7S418.8 688.2 513 688.2s170.7-76.5 170.7-170.7S607.2 340.4 513 340.4z m0 289.1c-64.6 0-112-52.8-112-112s47.4-117.9 112-117.9 112 52.8 112 112-47.4 117.9-112 117.9z m0-689.8c-135.7 0-259 58.7-341.9 158.9l-11.8 17.8 11.8 17.8c76.5 117.9 206.2 188.5 347.8 188.5 135.7 0 265-64.6 341.9-182.6l11.8-17.8-11.8-17.8C778-1.1 648.7-60.3 513-60.3zM230.3 122.8C300.9 46.3 406.9-1 513-1c112 0 218.1 47.4 288.6 129.8-70.5 88.2-170.7 135.6-282.7 135.6s-218.1-53.3-288.6-141.6z"  horiz-adv-x="1024" />

    
    <glyph glyph-name="report-qt" unicode="&#58898;" d="M673.28 418.5088c-12.5952 7.168-28.0576 7.168-40.6528 0-12.5952-7.168-20.1728-20.5824-20.1728-35.2256 0-14.6432 7.5776-28.0576 20.1728-35.2256 12.5952-7.168 28.0576-7.168 40.6528 0 12.5952 7.168 20.1728 20.5824 20.1728 35.2256 0 14.6432-7.5776 28.0576-20.1728 35.2256z m-182.4768 0c-12.5952-7.168-20.1728-20.5824-20.1728-35.2256 0-22.6304 18.0224-40.6528 40.6528-40.6528 22.2208 0 40.6528 18.0224 40.6528 40.6528 0 14.6432-7.5776 28.0576-20.1728 35.2256-12.8 7.168-28.3648 7.168-40.96 0z m-141.7216 0c-12.5952-7.168-20.1728-20.5824-20.1728-35.2256 0-14.6432 7.5776-28.0576 20.1728-35.2256 12.5952-7.168 28.0576-7.168 40.6528 0 12.5952 7.168 20.1728 20.5824 20.1728 35.2256 0 14.6432-7.5776 28.0576-20.1728 35.2256-12.5952 7.168-28.0576 7.168-40.6528 0z m0 0M511.3856-31.5392c-228.9664 0-415.232 186.2656-415.232 415.232S282.3168 798.9248 511.3856 798.9248c74.24 0 147.2512-19.7632 210.5344-57.4464 10.0352-5.8368 13.4144-18.8416 7.5776-28.5696-5.8368-10.0352-18.8416-13.4144-28.5696-7.5776-57.0368 33.5872-122.4704 51.6096-189.5424 51.6096-205.9264 0-373.248-167.3216-373.248-373.248s167.3216-373.248 373.248-373.248 373.248 167.3216 373.248 373.248c0 77.6192-23.4496 152.2688-68.4032 215.1424-6.7584 9.6256-4.608 22.6304 5.0176 29.3888 9.6256 6.7584 22.6304 4.608 29.3888-5.0176 49.8688-70.4512 75.8784-153.088 75.8784-239.5136 0.1024-228.9664-186.1632-415.232-415.1296-415.232z m0 0"  horiz-adv-x="1024" />

    
    <glyph glyph-name="diannao" unicode="&#59068;" d="M0 668.444444c0 78.535111 62.520889 142.222222 139.662222 142.222223h744.675556C961.507556 810.666667 1024 746.979556 1024 668.444444v-407.694222c0-78.563556-62.520889-142.222222-139.662222-142.222222H139.662222c-77.141333 0-139.662222 63.658667-139.662222 142.222222V668.444444z m139.662222 47.416889c-25.742222 0-46.563556-21.248-46.563555-47.416889v-407.694222c0-26.168889 20.821333-47.416889 46.535111-47.416889h744.732444c25.685333 0 46.535111 21.219556 46.535111 47.416889V668.444444c0 26.168889-20.849778 47.416889-46.535111 47.416889H139.633778z m-139.662222-711.111111c0 26.168889 20.849778 47.388444 46.535111 47.388445h930.901333c16.64 0 32-9.016889 40.334223-23.694223a48.156444 48.156444 0 0 0 0-47.416888 46.392889 46.392889 0 0 0-40.334223-23.694223H46.535111C20.849778-42.666667 0-21.447111 0 4.750222zM455.111111 625.777778c0 23.552 21.219556 42.666667 47.416889 42.666666h47.416889C576.113778 668.444444 597.333333 649.329778 597.333333 625.777778s-21.219556-42.666667-47.388444-42.666667h-47.416889C476.359111 583.111111 455.111111 602.225778 455.111111 625.777778z"  horiz-adv-x="1024" />

    
    <glyph glyph-name="API" unicode="&#58990;" d="M580.822 140.518c0-13.807-11.193-25-25-25h-19.955c-2.019-0.249-4.07-0.393-6.158-0.393h-35.417c-2.088 0-4.141 0.144-6.159 0.393h-19.954c-13.807 0-25 11.193-25 25V199.2H385.18v-84.075c0-32.982 26.757-59.738 59.765-59.738h134.11c33.01 0 59.766 26.756 59.766 59.738V384.249h-57.998v-243.731zM443.178 627.482c0 13.808 11.193 25 25 25h19.943a50.217 50.217 0 0 0 6.17 0.395h35.417c2.092 0 4.147-0.145 6.17-0.395h19.943c13.807 0 25-11.192 25-25v-71.311h57.998v96.705c0 32.98-26.756 59.736-59.766 59.736h-134.11c-33.008 0-59.765-26.756-59.765-59.736V384h57.999V627.482zM268.517 315.178c-13.807 0-25 11.193-25 25v19.955a50.233 50.233 0 0 0-0.393 6.158v35.417c0 2.088 0.144 4.141 0.393 6.159v19.954c0 13.807 11.193 25 25 25h52.13V510.82h-77.522c-32.982 0-59.738-26.757-59.738-59.765v-134.11c0-33.01 26.756-59.766 59.738-59.766H512v57.998H268.517zM780.877 510.82H512v-57.999h243.482c13.808 0 25-11.193 25-25v-19.943c0.25-2.022 0.395-4.078 0.395-6.17v-35.417a50.23 50.23 0 0 0-0.395-6.17v-19.943c0-13.807-11.192-25-25-25h-59.963v-57.998h85.357c32.98 0 59.736 26.756 59.736 59.766v134.11c0.001 33.007-26.755 59.764-59.735 59.764z"  horiz-adv-x="1024" />

    
    <glyph glyph-name="shipin2" unicode="&#58941;" d="M546.133333-81.749333C298.666667-81.749333 97.450667 119.466667 97.450667 366.933333S298.666667 815.616 546.133333 815.616 994.816 614.4 994.816 366.933333 793.6-81.749333 546.133333-81.749333z m0 829.098666c-209.749333 0-380.416-170.666667-380.416-380.416s170.666667-380.416 380.416-380.416 380.416 170.666667 380.416 380.416S755.882667 747.349333 546.133333 747.349333zM498.517333 203.093333c-10.752 0-21.504 2.56-31.402666 7.850667a67.584 67.584 0 0 0-36.010667 59.904V463.018667c0 25.088 13.824 48.128 36.010667 59.904 22.186667 11.776 48.981333 10.24 69.802666-3.925334l133.12-96.426666c18.261333-12.629333 29.184-33.450667 29.184-55.637334 0-22.357333-11.093333-43.349333-29.696-55.978666l-131.925333-95.573334c-12.117333-8.192-25.6-12.288-39.082667-12.288z m-1.024 260.096l1.706667-192.341333 131.072 95.914667-0.341333 0.341333h0.341333l-132.778667 96.085333z"  horiz-adv-x="1024" />

    
    <glyph glyph-name="rizhi" unicode="&#59264;" d="M740.5 725h-474c-35.2 0-64-28.8-64-64v-44c0-17.7 14.3-32 32-32s32 14.3 32 32v43.9l0.1 0.1h473.8l0.1-0.1v-186.1c5.8 1.9 11.8 3.4 18 4.2h0.2c4.1 0.6 8.3 0.9 12.6 0.9H773.3c4.3 0 8.5-0.4 12.6-0.9h0.2c6.2-0.9 12.2-2.3 18-4.2V661c0.4 35.2-28.4 64-63.6 64z m-461-166h-96c-17.6 0-32-14.4-32-32s14.4-32 32-32h96c17.6 0 32 14.4 32 32s-14.4 32-32 32z m325-7h-216c-17.6 0-32-14.4-32-32s14.4-32 32-32h216c17.6 0 32 14.4 32 32s-14.4 32-32 32z m168-72h-0.1-0.1-0.1-0.1-0.1-0.1-0.4c-4.3 0-8.5-0.4-12.6-0.9h-0.1-0.1c-48.6-6.8-86-48.5-86-99s37.4-92.2 86-99h0.2c4.1-0.6 8.3-0.9 12.6-0.9H773.5c4.3 0 8.5 0.4 12.6 0.9h0.2c48.6 6.8 86 48.5 86 99s-37.4 92.2-86 99h-0.1-0.1c-4.1 0.6-8.3 0.9-12.6 0.9h-0.3-0.1-0.1-0.1-0.1-0.1-0.1-0.1z m0-136c-19.9 0-36 16.1-36 36s16.1 36 36 36 36-16.1 36-36-16.1-36-36-36z m-541 119c-0.6 0-1.3 0-1.9-0.1-16.7-1-30.1-15-30.1-31.9v-103c0-17 13.4-30.9 30.1-31.9 0.7 0 1.3-0.1 1.9-0.1 17.7 0 32 14.7 32 32.8V430.2c0 18.1-14.2 32.8-32 32.8z m373-51h-216c-17.6 0-32-14.4-32-32s14.4-32 32-32h216c17.6 0 32 14.4 32 32s-14.4 32-32 32z m200-126.8c-5.8-1.9-11.8-3.4-18-4.2h-0.1-0.1c-4.1-0.6-8.3-0.9-12.6-0.9h-0.3-0.1-0.1-0.1-0.1-0.1-0.1-0.1-0.1-0.1-0.1-0.1-0.1-0.1-0.4c-4.3 0-8.5 0.4-12.6 0.9h-0.1-0.1c-6.2 0.9-12.2 2.3-18 4.2v-178.1l-0.1-0.1H266.6l-0.1 0.1V150c0 17.7-14.3 32-32 32s-32-14.3-32-32v-43c0-35.2 28.8-64 64-64h474c35.2 0 64 28.8 64 64V285.20000000000005z m-200-13.2h-216c-17.6 0-32-14.4-32-32s14.4-32 32-32h216c17.6 0 32 14.4 32 32s-14.4 32-32 32z m-325-9h-96c-17.6 0-32-14.4-32-32s14.4-32 32-32h96c17.6 0 32 14.4 32 32s-14.4 32-32 32z"  horiz-adv-x="1024" />

    
    <glyph glyph-name="liebiao1" unicode="&#58910;" d="M872 168a72 72 0 0 0 0-144H152a72 72 0 0 0 0 144h720z m0 288a72 72 0 0 0 0-144H152a72 72 0 0 0 0 144h720z m0 288a72 72 0 0 0 0-144H152a72 72 0 0 0 0 144h720z"  horiz-adv-x="1024" />

    
    <glyph glyph-name="fenxiang_huaban" unicode="&#58912;" d="M864 384c-17.67 0-32-14.33-32-32v-288H192V704h368c17.67 0 32 14.33 32 32s-14.33 32-32 32H160c-17.67 0-32-14.33-32-32v-704c0-17.67 14.33-32 32-32h704c17.67 0 32 14.33 32 32V352c0 17.67-14.33 32-32 32zM817.82 639.31c-244.03-7.27-446.8-199.46-464.55-444.12-1.27-17.62 11.98-32.95 29.61-34.23 0.78-0.05 1.56-0.08 2.34-0.08 16.62 0 30.66 12.84 31.89 29.69 15.33 211.45 190.2 377.65 400.96 384.76l-103.9-103.9c-12.5-12.5-12.5-32.75 0-45.25 6.25-6.25 14.44-9.38 22.62-9.38s16.38 3.12 22.62 9.38l135.77 135.77c24.95 24.95 24.95 65.56 0 90.52L759.42 788.22c-12.5 12.5-32.75 12.5-45.25 0s-12.5-32.75 0-45.25l103.65-103.66z"  horiz-adv-x="1024" />

    
    <glyph glyph-name="IP" unicode="&#59294;" d="M512 768c212.064 0 384-171.936 384-384s-171.936-384-384-384S128 171.936 128 384 299.936 768 512 768z m0-64C335.264 704 192 560.736 192 384s143.264-320 320-320 320 143.264 320 320S688.736 704 512 704z m-107.584-160v-319.872H352V544h52.416z m195.328 0c77.056 0 116.032-32.704 116.032-98.112 0-65.856-38.976-99.008-116.928-99.008h-79.296v-122.752h-52.416V544h132.608z m-4.032-44.8h-76.16v-107.52h76.16c23.296 0 40.32 4.48 51.072 12.544 10.752 8.512 16.128 22.4 16.128 41.664 0 19.264-5.824 32.704-16.576 40.768-10.752 8.512-27.776 12.544-50.624 12.544z"  horiz-adv-x="1024" />

    
    <glyph glyph-name="mima" unicode="&#58930;" d="M725.33 469.33v85.32c0 117.34-96.01 213.35-213.35 213.35-117.32 0-213.32-95.99-213.32-213.32v-85.35h-128V0h682.67V469.33h-128zM384 554.68c0 70.57 57.41 127.98 127.98 127.98 70.59 0 128.02-57.43 128.02-128.02v-85.32H384v85.36z m384-469.35H256V384h512v-298.67zM469.33 298.67h85.33v-128h-85.33z"  horiz-adv-x="1024" />

    
    <glyph glyph-name="caidan" unicode="&#59027;" d="M208.4864 640.2048h95.5904v-81.92H208.4864zM208.4864 408.1152h95.5904v-81.92H208.4864zM208.4864 176.0256h95.5904v-81.92H208.4864zM406.4768 640.2048h423.2704v-81.92H406.4768zM406.4768 408.1152h423.2704v-81.92H406.4768zM406.4768 175.9744h423.2704v-81.92H406.4768z"  horiz-adv-x="1024" />

    
    <glyph glyph-name="file-unknown" unicode="&#59181;" d="M901.851057-30.476282999999967a48.761858 48.761858 0 0 0-48.761858-48.761859H170.423182a48.761858 48.761858 0 0 0-48.761858 48.761859V847.237166a48.761858 48.761858 0 0 0 48.761858 48.761859h418.376745a48.761858 48.761858 0 0 0 34.620919-14.140939l264.289272-263.801654a48.761858 48.761858 0 0 0 14.140939-34.620919V-30.476282999999967zM901.851057-30.476282999999967v-48.761859a48.761858 48.761858 0 0 0-48.761858-48.761858H170.423182a48.761858 48.761858 0 0 0-48.761858 48.761858v48.761859a48.761858 48.761858 0 0 1 48.761858-48.761859h682.666017a48.761858 48.761858 0 0 1 48.761858 48.761859zM476.647653 236.251082h71.679931V164.57115H476.647653zM511.756191 603.427875a142.872245 142.872245 0 0 1-142.872245-142.872245h71.679932a71.679932 71.679932 0 0 0 142.872244 0c0-71.679932-106.78847-62.902797-106.788469-178.95602h71.192313c0 80.457066 106.78847 89.234201 106.78847 178.95602A142.872245 142.872245 0 0 1 511.756191 603.427875zM901.851057 583.435513v-6.82666h-263.801653a48.761858 48.761858 0 0 0-48.761859 48.761858V895.999025a48.761858 48.761858 0 0 0 34.62092-14.140939l264.289272-263.801654a48.761858 48.761858 0 0 0 13.65332-34.620919z"  horiz-adv-x="1024" />

    
    <glyph glyph-name="upload" unicode="&#58890;" d="M168 864c-12 0-24.8-4.8-33.6-14.4C124.8 840.8 120 828 120 816v-864c0-12 4.8-24.8 14.4-33.6 9.6-9.6 21.6-14.4 33.6-14.4h704c12 0 24.8 4.8 33.6 14.4 9.6 9.6 14.4 21.6 14.4 33.6V592L648 864H168zM920 592H696c-12 0-24.8 4.8-33.6 14.4-9.6 8.8-14.4 21.6-14.4 33.6V864l272-272zM372 352.8H456v-136c0-4 1.6-8 4.8-11.2 3.2-3.2 7.2-4.8 11.2-4.8h96c4 0 8 1.6 11.2 4.8 3.2 3.2 4.8 7.2 4.8 11.2v136h84c3.2 0 6.4 1.6 7.2 4.8 1.6 3.2 0 6.4-1.6 8.8l-142.4 136c-3.2 2.4-6.4 4.8-11.2 4.8-4.8 0-8-1.6-11.2-4.8l-142.4-136c-2.4-2.4-3.2-5.6-1.6-8.8 1.6-3.2 4-4.8 7.2-4.8zM720 144.8H320c-8.8 0-16-7.2-16-16s7.2-16 16-16h400c8.8 0 16 7.2 16 16s-7.2 16-16 16z"  horiz-adv-x="1024" />

    
    <glyph glyph-name="file-code" unicode="&#58899;" d="M160 864c-12 0-24.8-4.8-33.6-14.4S112 828 112 816v-864c0-12 4.8-24.8 14.4-33.6 9.6-9.6 21.6-14.4 33.6-14.4h704c12 0 24.8 4.8 33.6 14.4 9.6 9.6 14.4 21.6 14.4 33.6V592L640 864H160zM912 592H688c-12 0-24.8 4.8-33.6 14.4-9.6 8.8-14.4 21.6-14.4 33.6V864l272-272zM421.6 332L304 285.6l117.6-46.4v-36.8l-162.4 64.8V304l162.4 64.8v-36.8zM538.4 438.4h36.8l-89.6-240h-36.8l89.6 240zM602.4 238.39999999999998L720 284.79999999999995l-117.6 46.4V368l162.4-64v-37.6l-162.4-64.8v36.8z"  horiz-adv-x="1024" />

    
    <glyph glyph-name="file-xd" unicode="&#58965;" d="M758.090323 859.664516L736.619355 881.135484h-545.032258c-46.245161 0-82.580645-36.335484-82.580645-82.580645v-825.806452c0-46.245161 36.335484-82.580645 82.580645-82.580645h644.129032c46.245161 0 82.580645 36.335484 82.580645 82.580645V694.503226l-160.206451 165.16129zM508.696774 197.36774200000002c-11.56129-8.258065-19.819355-4.954839-28.077419 4.954839L379.870968 346.01290300000005 277.470968 202.322581c-3.303226-4.954839-8.258065-8.258065-13.212903-9.909678-4.954839 0-9.909677 0-14.864517 4.954839-4.954839 3.303226-6.606452 6.606452-6.606451 13.212903 0 4.954839 1.651613 9.909677 4.954838 14.864516l107.354839 153.6-90.838709 132.129033c-3.303226 3.303226-4.954839 8.258065-3.303226 13.212903 0 4.954839 3.303226 9.909677 6.606451 13.212903 4.954839 3.303226 9.909677 4.954839 13.212904 4.954839 3.303226 0 8.258065-3.303226 13.212903-9.909678l85.883871-122.219355 82.580645 118.916129c4.954839 8.258065 9.909677 11.56129 14.864516 13.212904 4.954839 1.651613 9.909677 0 14.864516-3.303226 9.909677-6.606452 9.909677-14.864516 3.303226-26.425807l-92.490323-132.129032 110.658065-156.903226c1.651613-4.954839 3.303226-8.258065 4.954839-13.212903-3.303226-4.954839-4.954839-9.909677-9.909678-13.212903z m274.167742 14.864516c0-4.954839-1.651613-9.909677-4.954839-13.212903-3.303226-3.303226-8.258065-4.954839-14.864516-4.954839s-13.212903 1.651613-14.864516 4.954839c-3.303226 3.303226-4.954839 8.258065-4.954839 13.212903v31.380645c-6.606452-14.864516-16.516129-28.077419-31.380645-37.987097s-31.380645-14.864516-51.2-14.864516c-16.516129 0-29.729032 3.303226-42.941935 9.909678-13.212903 6.606452-24.774194 14.864516-34.683871 26.425806-9.909677 11.56129-16.516129 26.425806-21.470968 42.941936-4.954839 16.516129-8.258065 34.683871-8.258064 54.503225 0 24.774194 3.303226 44.593548 9.909677 62.761291 6.606452 18.167742 14.864516 31.380645 24.774194 42.941935 9.909677 11.56129 21.470968 19.819355 34.683871 24.774194 13.212903 4.954839 28.077419 8.258065 41.290322 8.258064 19.819355 0 36.335484-6.606452 49.548387-18.167742 13.212903-11.56129 24.774194-24.774194 29.729032-41.290322v140.387097c0 4.954839 1.651613 9.909677 4.954839 13.212903 3.303226 3.303226 8.258065 6.606452 14.864516 6.606451s11.56129-1.651613 14.864516-6.606451c3.303226-3.303226 4.954839-8.258065 4.954839-13.212903v-331.974194zM726.709677 397.212903c-6.606452 9.909677-13.212903 16.516129-23.12258 23.122581-9.909677 4.954839-19.819355 8.258065-31.380645 8.258064-13.212903 0-24.774194-1.651613-34.683871-6.606451s-18.167742-11.56129-24.774194-21.470968c-6.606452-9.909677-11.56129-19.819355-14.864516-33.032258-3.303226-13.212903-4.954839-26.425806-4.954839-42.941936 0-31.380645 6.606452-56.154839 21.470968-74.32258s33.032258-26.425806 57.806452-26.425807c11.56129 0 23.122581 3.303226 31.380645 8.258065s16.516129 11.56129 23.12258 21.470968c6.606452 8.258065 9.909677 19.819355 13.212904 31.380645 3.303226 11.56129 4.954839 24.774194 4.954838 39.638709s-1.651613 26.425806-4.954838 39.63871c-3.303226 13.212903-8.258065 23.122581-13.212904 33.032258zM736.619355 881.135484h-3.303226v-132.129032c0-16.516129 8.258065-52.851613 57.806452-52.851613h127.174193L736.619355 881.135484z"  horiz-adv-x="1024" />

    
    <glyph glyph-name="file-dw" unicode="&#58967;" d="M758.090323 859.664516L736.619355 881.135484h-545.032258c-46.245161 0-82.580645-36.335484-82.580645-82.580645v-825.806452c0-46.245161 36.335484-82.580645 82.580645-82.580645h644.129032c46.245161 0 82.580645 36.335484 82.580645 82.580645V694.503226l-160.206451 165.16129zM440.980645 321.23870999999997c-4.954839-19.819355-14.864516-37.987097-24.774193-54.503226-11.56129-14.864516-26.425806-28.077419-42.941936-36.335484-18.167742-8.258065-37.987097-13.212903-61.109677-13.212903h-92.490323c-9.909677 0-16.516129 1.651613-18.167742 4.954838s-3.303226 8.258065-3.303226 14.864517V537.6c0 6.606452 1.651613 11.56129 3.303226 14.864516 1.651613 3.303226 8.258065 4.954839 18.167742 4.954839h90.83871c24.774194 0 46.245161-4.954839 62.76129-13.212903 18.167742-8.258065 33.032258-21.470968 44.593549-36.335484 11.56129-14.864516 19.819355-33.032258 26.425806-54.503226 4.954839-19.819355 8.258065-42.941935 8.258064-66.064516-3.303226-23.122581-4.954839-44.593548-11.56129-66.064516zM827.458065 450.064516c-1.651613-6.606452-4.954839-13.212903-6.606452-19.819355l-64.412903-196.541935c-3.303226-6.606452-4.954839-11.56129-8.258065-14.864516-3.303226-3.303226-8.258065-4.954839-13.212903-4.954839-6.606452 0-11.56129 1.651613-14.864516 6.606452-3.303226 4.954839-6.606452 9.909677-8.258065 16.516129L657.341935 417.032258l-49.548387-161.858064c-3.303226-11.56129-6.606452-21.470968-9.909677-29.729033-3.303226-8.258065-9.909677-11.56129-16.516129-11.56129-4.954839 0-9.909677 1.651613-13.212903 4.954839-3.303226 3.303226-6.606452 8.258065-9.909678 16.516129l-64.412903 196.541935c-1.651613 4.954839-3.303226 11.56129-6.606452 19.819355-1.651613 6.606452-3.303226 13.212903-3.303225 16.516129 0 3.303226 1.651613 6.606452 4.954838 9.909677s6.606452 4.954839 13.212904 4.954839c9.909677 0 14.864516-6.606452 18.167742-18.167742L578.064516 273.34193500000003l57.806452 186.632259c1.651613 6.606452 4.954839 11.56129 8.258064 14.864516 3.303226 3.303226 6.606452 4.954839 11.561291 4.954838 4.954839 0 8.258065-1.651613 11.56129-4.954838 3.303226-3.303226 4.954839-8.258065 8.258064-14.864516l59.458065-186.632259L792.774194 461.625806c3.303226 11.56129 9.909677 18.167742 19.819354 18.167742 6.606452 0 11.56129-1.651613 13.212904-3.303225 1.651613-3.303226 3.303226-6.606452 3.303225-9.909678 1.651613-3.303226 0-9.909677-1.651612-16.516129zM298.941935 524.387097h-62.76129V251.87096799999995h75.974194c31.380645 0 56.154839 11.56129 72.670967 36.335484 18.167742 23.122581 26.425806 57.806452 26.425807 102.4 0 42.941935-8.258065 75.974194-26.425807 99.096774-19.819355 23.122581-47.896774 34.683871-85.883871 34.683871zM736.619355 881.135484h-3.303226v-132.129032c0-16.516129 8.258065-52.851613 57.806452-52.851613h127.174193L736.619355 881.135484z"  horiz-adv-x="1024" />

    
    <glyph glyph-name="file-link" unicode="&#58968;" d="M758.090323 859.664516L736.619355 881.135484h-545.032258c-46.245161 0-82.580645-36.335484-82.580645-82.580645v-825.806452c0-46.245161 36.335484-82.580645 82.580645-82.580645h644.129032c46.245161 0 82.580645 36.335484 82.580645 82.580645V696.154839l-160.206451 163.509677zM583.019355 312.980645l-61.109678-104.051613c-26.425806-44.593548-84.232258-61.109677-128.825806-34.683871l-1.651613 1.651613C346.83871 202.322581 330.322581 260.12903200000005 356.748387 304.722581l28.077419 44.593548c0 1.651613 1.651613 3.303226 3.303226 4.954839 3.303226 3.303226 6.606452 4.954839 9.909678 6.606451 11.56129 3.303226 23.122581-3.303226 24.774193-14.864516 1.651613-6.606452 0-13.212903-3.303226-18.167742l-26.425806-46.245161c-14.864516-24.774194-6.606452-56.154839 18.167742-69.367742l1.651613-1.651613c24.774194-14.864516 56.154839-6.606452 69.367742 18.167742L545.032258 334.45161299999995c14.864516 24.774194 11.56129 59.458065-13.212903 72.670968l-1.651613 1.651613c-1.651613 1.651613-4.954839 1.651613-6.606452 3.303225-1.651613 0-3.303226 1.651613-4.954838 3.303226-3.303226 3.303226-6.606452 6.606452-8.258065 11.56129-3.303226 9.909677 3.303226 21.470968 13.212903 23.122581 4.954839 1.651613 9.909677 0 14.864516-1.651613 3.303226-1.651613 8.258065-3.303226 11.561291-4.954838l1.651613-1.651613c44.593548-26.425806 56.154839-84.232258 31.380645-128.825807z m87.535484 151.948387l-29.729033-44.593548c-1.651613-1.651613-1.651613-3.303226-3.303225-4.954839-3.303226-3.303226-6.606452-4.954839-9.909678-4.954839-11.56129-3.303226-23.122581 3.303226-24.774193 14.864517-1.651613 6.606452 0 13.212903 3.303225 18.167742l26.425807 46.245161c14.864516 24.774194 6.606452 56.154839-18.167742 69.367742l-1.651613 1.651613c-24.774194 14.864516-56.154839 6.606452-69.367742-18.167742l-61.109677-104.051613c-14.864516-24.774194-14.864516-54.503226 9.909677-69.367742l1.651613-1.651613c3.303226-1.651613 8.258065-4.954839 13.212903-8.258065 1.651613-1.651613 3.303226-4.954839 3.303226-6.606451 3.303226-9.909677-3.303226-19.819355-13.212903-21.470968-3.303226-1.651613-6.606452 0-9.909678 0-1.651613 0-3.303226 1.651613-4.954838 1.651613-1.651613 1.651613-4.954839 1.651613-6.606452 3.303226v-1.651613c-44.593548 26.425806-56.154839 77.625806-29.729032 123.870968l61.109677 104.051613c26.425806 44.593548 84.232258 61.109677 128.825807 34.683871l1.651613-1.651613c44.593548-26.425806 59.458065-85.883871 33.032258-130.47742zM736.619355 881.135484h-3.303226v-132.129032c0-16.516129 8.258065-52.851613 57.806452-52.851613h127.174193L736.619355 881.135484z"  horiz-adv-x="1024" />

    
    <glyph glyph-name="folder" unicode="&#58976;" d="M160.4-12.799999999999955c-22.7 0-41.1 18-41.7 40.4l81.8 457.2V486c0 22.9 18.7 41.5 41.8 41.5h674.5c22.6 0 41.1-18 41.8-40.4l-81.8-457.2v-1.2c0-22.9-18.7-41.5-41.8-41.5H160.4zM200.6 582.6h654.5v64.8c0 29.4-22.1 53.2-49.4 53.2H435.3l-74.1 79.8h-247c-27.3 0-49.4-23.8-49.4-53.2v-638.3l80.8 440.4c0.1 29.4 24.8 53.3 55 53.3"  horiz-adv-x="1024" />

    
    <glyph glyph-name="file_zip" unicode="&#59031;" d="M748 712.5V896H96v-1024h836V712.5zM932 712H748V896M223 896h96v-96h-96zM319 800h96v-96h-96zM223 704h96v-96h-96zM319 608h96v-96h-96zM223 512h96v-96h-96zM319 416h96v-96h-96z"  horiz-adv-x="1024" />

    
    <glyph glyph-name="file_excel" unicode="&#59032;" d="M745 711.7V895H93v-1022.5h836V711.7zM928.8 712h-184V895.2M500.8 419.8l76.6 131h67.7L532.5 358.1 445.7 210H378l122.8 209.8z m-0.7-70.3l-6.6 11-112.7 190.3h67.7L525 421.6l8.9-15.2L650.3 210h-67.7l-82.5 139.5z"  horiz-adv-x="1024" />

    
    <glyph glyph-name="file_ppt" unicode="&#59033;" d="M745 710V893H93v-1021h836V710zM929 710H745V893.3M390.5 554.8h64.2V214h-64.2V554.8z m29.3-146.7h109c7.7 0 14.4 1.8 20.3 5.3s10.4 8.5 13.7 14.9 4.9 13.7 4.9 22c0 8.4-1.6 15.9-4.8 22.4s-7.7 11.5-13.6 15-12.7 5.3-20.5 5.3h-109v61.9h107.3c21.2 0 40-4.3 56.1-13s28.7-20.9 37.6-36.7c8.9-15.8 13.4-34.1 13.4-54.8 0-20.8-4.5-39-13.4-54.7s-21.4-27.9-37.6-36.4c-16.2-8.6-34.9-12.9-56.1-12.9H419.8v61.7z"  horiz-adv-x="1024" />

    
    <glyph glyph-name="file_word" unicode="&#59034;" d="M745 710V893H93v-1021h836V710zM929 710H745V893M490.4 551.8H542l65.2-227.3L651 551.8h66.1L638.5 211H578l-60.5 238.1L454.3 211h-60.5l-78.5 340.8h66.1l43.8-227.3 65.2 227.3z"  horiz-adv-x="1024" />

    
    <glyph glyph-name="file_pdf" unicode="&#59035;" d="M748 712.5V896H96v-1024h836V712.5zM932 712H748V896M657.9 289.9c-29.4 1.9-57.4 12.9-79.9 31.3-44.2-9.4-86.3-22.9-128.4-39.6-33.5-57.4-64.8-86.6-91.8-86.6-5.4 0-11.9 1-16.2 4.2-11.3 5.1-18.5 16.1-18.3 28.2 0 9.4 2.1 35.5 104.7 78.2 23.3 41.3 42.4 84.6 57.2 129.4-12.9 25-41 86.6-21.6 117.9 6.5 11.5 19.4 17.7 33.5 16.7 11-0.1 21.4-5.1 28.1-13.6 14-18.8 12.9-58.4-5.4-116.8 17.3-31.3 39.9-59.5 66.9-83.5 22.7 4.2 45.3 7.3 68 7.3 50.7-1 58.3-24 57.2-37.5 0-35.6-35.7-35.6-54-35.6z m-302.2-64.6l3.2 1c15.1 5.2 27 15.6 35.6 29.2-16.2-6.3-29.1-16.6-38.8-30.2z m143.5 312.9H496c-1.1 0-3.3 0-4.3-1-4.3-17.7-1.1-36.5 6.5-53.2 6.2 17.5 6.6 36.5 1 54.2z m7.6-151.2l-1.1-2.1-1.1 1.1c-9.7-24-20.5-48-32.4-70.9l2.1 1v-2.1c24 8.4 48.5 15.3 73.4 20.9l-1 1h3.3c-16.2 15.5-30.7 32.6-43.2 51.1z m146.8-55.3c-9.7 0-18.3 0-28-2.1 10.8-5.2 21.6-7.3 32.4-8.3 7.6-1 15.1 0 21.6 2.1-0.1 3-4.4 8.3-26 8.3z"  horiz-adv-x="1024" />

    
    <glyph glyph-name="file_music" unicode="&#59036;" d="M748 712.5V896H96v-1024h836V712.5zM932 712H748V896M586.7 593.9c-5.3-7.5-34.2-20.3-58.7-25.6-31-6.4-47-11.7-63-20.3-21.3-12.8-33.1-28.8-31-43.8 1.1-3.2 26.7-40.6 56.6-83.2 31-42.7 56.6-79 57.6-80 1.1-2.1-3.2-2.1-18.1-1.1-47 3.2-89.6-21.3-108.9-59.8-5.3-11.7-6.4-18.1-6.4-32 0-32 17.1-57.6 49.1-72.6 12.8-5.3 17.1-6.4 43.8-6.4 28.8 0 29.9 0 49.1 9.6C608 203.20000000000005 629.4 251.29999999999995 608 295c-4.3 9.6-31 55.5-59.8 102.5L496 484h8.5c34.2 2.1 57.6 12.8 73.6 31 13.9 16 18.1 32 17.1 57.6-1 23.5-3.2 28.8-8.5 21.3z"  horiz-adv-x="1024" />

    
    <glyph glyph-name="file_video" unicode="&#59037;" d="M748 712.5V896H96v-1024h836V712.5zM932 712H748V896M635.3 436.4l52.3 30.3c9.2 5.5 17.4 0.9 17.4-8.3v-151.3c0-11-7.3-14.7-17.4-8.3l-52.3 30.3c-9.2 5.5-17.4 11.9-17.4 21.1v66.9c0 8.3 8.3 13.8 17.4 19.3z m-82.5 56.8H356.7c-20.2 0-36.7-16.5-36.7-36.7v-157.7c0-20.2 16.5-36.7 36.7-36.7h196.2c20.2 0 36.7 16.5 36.7 36.7V456.5c-0.1 20.2-16.6 36.7-36.8 36.7z m-118.2-88.9c-2.8-13.8-13.8-23.8-25.7-26.6-23.8-4.6-44 16.5-39.4 39.4 2.8 13.8 13.8 23.8 25.7 25.7 23.8 6.4 44-13.8 39.4-38.5z"  horiz-adv-x="1024" />

    
    <glyph glyph-name="file_img" unicode="&#59038;" d="M748 712.5V896H96v-1024h836V712.5zM932 712H748V896M314.1 435.1c17.5-9.9 38.9-9.8 56.3 0.4 17.4 10.2 28 28.8 27.9 48.9-0.2 31.1-25.6 56.1-56.7 55.9-31.2-0.1-56.2-25.5-56-56.7 0.1-20 11-38.5 28.5-48.5zM466.5 309.29999999999995l-74.9 78.8L280.7 230l470.3 3.1-144.2 228.2z"  horiz-adv-x="1024" />

    
    <glyph glyph-name="file_ai" unicode="&#59041;" d="M748 712.5V896H96v-1024h836V712.5zM932 712H748V896M439.8 548.1h37.8l120.7-315.7h-64L458.7 448l-75.5-215.6h-64l120.6 315.7z m-62.7-207.8h166.1V283H377.1v57.3zM629.8 548.1h59.5v-59.5h-59.5v59.5z m0-90.3h59.5v-225.3h-59.5V457.8z"  horiz-adv-x="1024" />

    
    <glyph glyph-name="file_psd" unicode="&#59042;" d="M748 712.5V896H96v-1024h836V712.5zM932 712H748V896M299.5 551.1H359v-315.7h-59.5V551.1z m27.2-135.9h100.9c7.1 0 13.4 1.6 18.8 4.9 5.4 3.3 9.7 7.8 12.7 13.8 3 5.9 4.6 12.7 4.6 20.4 0 7.8-1.5 14.7-4.5 20.7s-7.2 10.6-12.6 13.9c-5.4 3.3-11.8 4.9-19 4.9H326.7v57.3h99.4c19.7 0 37-4 52-12s26.6-19.4 34.8-34c8.3-14.6 12.4-31.6 12.4-50.8 0-19.3-4.1-36.1-12.4-50.7-8.3-14.5-19.9-25.8-34.8-33.8-15-8-32.3-11.9-52-11.9h-99.4v57.3zM627.1 232.2s-6.4 1.2-19.1 3.6c-12.7 2.4-24.7 5.9-35.8 10.5-11.1 4.6-21 10.2-29.5 16.7l36.7 45.8c10.9-6.9 22.2-12.3 34.1-16.1 11.9-3.8 23.2-5.6 33.9-5.6 13.9 0 24.7 1.6 32.3 4.7 7.7 3.1 11.5 7.4 11.5 12.9 0 5.1-1.7 8.9-5 11.5-3.3 2.6-7.6 4.5-12.8 5.5-5.2 1.1-12.5 2.1-21.9 2.9-2.6 0.3-5.2 0.6-7.9 0.9l-8.1 0.9c-0.6 0.1-1.2 0.3-1.8 0.3-0.7 0.1-1.3 0.1-1.8 0.1-16.8 2.2-30.3 4.8-40.4 8-10.1 3.2-18.7 9.3-25.7 18.3s-10.5 22.2-10.5 39.4c0 15.1 3.6 27.9 10.9 38.6 7.2 10.7 17.7 18.8 31.5 24.4 13.7 5.6 30.4 8.4 49.9 8.4 11.4 0 22.8-1.2 34.2-3.5 11.4-2.3 22.3-5.6 32.7-10 10.4-4.3 20-9.6 28.9-15.6L708 391.6c-9.8 5.5-20.1 9.8-30.8 12.8s-21 4.6-30.8 4.6c-12 0-21.3-1.4-28-4.1-6.7-2.8-10-6.6-10-11.5 0-3.8 1.8-6.7 5.3-8.8 3.5-2.1 8-3.6 13.2-4.6 5.3-0.9 13-2 23.1-3.1 1.3-0.1 2.6-0.3 3.9-0.4 1.3-0.1 2.6-0.3 3.9-0.4 0.6-0.1 1.2-0.2 2-0.2 0.7 0 1.4-0.1 2-0.2 17.5-2 31.8-4.6 42.8-7.8 11-3.2 20.4-9.6 28.1-19.1 7.7-9.6 11.6-23.6 11.6-42.1 0-15.6-3.8-29-11.3-40.2-7.5-11.1-18.5-19.6-33-25.5-14.5-5.9-31.9-8.8-52.3-8.8h-20.6z"  horiz-adv-x="1024" />

    
    <glyph glyph-name="file_bt" unicode="&#59043;" d="M748 712.5V896H96v-1024h836V712.5zM932 712H748V896M331.5 551.1H391v-315.7h-59.5V551.1z m26.1-258.3h100.7c13.6 0 24.1 3.3 31.6 9.9 7.5 6.6 11.2 15.8 11.2 27.7v0.6c0 8-1.7 14.8-5 20.4-3.3 5.6-8.2 9.9-14.7 12.9-6.4 3-14.1 4.5-23.1 4.5H357.6v57.3h100.7c12.3 0 21.8 3.1 28.5 9.3 6.7 6.2 10.1 15 10.1 26.3 0 10.1-3.4 18-10.1 23.7s-16.2 8.5-28.5 8.5H357.6v57.3h102.7c20.4 0 37.8-3.4 52.3-10.1 14.5-6.7 25.5-16.5 33-29.3s11.3-28.2 11.3-46.1c0-12.3-2.4-23.2-7.3-32.7-4.9-9.5-11.9-17.3-21.2-23.3-9.3-6.1-20.4-10.2-33.4-12.4 13.9-1.9 25.8-6.1 35.7-12.7 9.9-6.6 17.4-15.2 22.6-25.7 5.1-10.6 7.7-22.8 7.7-36.7v-0.7c0-18.1-3.8-33.6-11.4-46.5-7.6-12.9-18.7-22.7-33.2-29.4-14.5-6.7-32-10.1-52.4-10.1H357.6v57.3zM596.8 460.8h110.3V410H596.8v50.8z m37-211.4c-9.2 10.1-13.8 24.9-13.8 44.6V526.3h59.5v-217.5c0-5.5 1.1-9.7 3.3-12.7 2.2-3 5.4-4.5 9.6-4.5h14.8v-57.3h-30c-19.7 0.1-34.2 5.1-43.4 15.1z"  horiz-adv-x="1024" />

    
    <glyph glyph-name="file_txt" unicode="&#59044;" d="M748 712.5V896H96v-1024h836V712.5zM932 712H748V896M387.4 574.2h249.8v-61.9H387.4v61.9z m92.8-27.9h64.2v-312.9h-64.2V546.3z"  horiz-adv-x="1024" />

    
    <glyph glyph-name="file_exe" unicode="&#59045;" d="M748 712.5V896H96v-1024h836V712.5zM932 712H748V896M363.3 188.8c-19.4 0-35.3 15.9-35.3 35.3v88.3c0 19.4 15.9 35.3 35.3 35.3h88.3c19.4 0 35.3-15.9 35.3-35.3v-88.3c0-19.4-15.9-35.3-35.3-35.3h-88.3zM451.6 338.9c15 0 26.5-11.5 26.5-26.5v-88.3c0-15-11.5-26.5-26.5-26.5h-88.3c-15 0-26.5 11.5-26.5 26.5v88.3c0 15 11.5 26.5 26.5 26.5h88.3m0 17.7h-88.3c-24.7 0-44.1-20.3-44.1-44.1v-88.3c0-24.7 20.3-44.1 44.1-44.1h88.3c24.7 0 44.1 20.3 44.1 44.1v88.3c0.1 24.7-19.3 44.1-44.1 44.1z m-88.3 45.9c-19.4 0-35.3 15.9-35.3 35.3v88.3c0 19.4 15.9 35.3 35.3 35.3h88.3c19.4 0 35.3-15.9 35.3-35.3v-88.3c0-19.4-15.9-35.3-35.3-35.3h-88.3zM451.6 552.6c15 0 26.5-11.5 26.5-26.5v-88.3c0-15-11.5-26.5-26.5-26.5h-88.3c-15 0-26.5 11.5-26.5 26.5v88.3c0 15 11.5 26.5 26.5 26.5h88.3m0 17.7h-88.3c-24.7 0-44.1-20.3-44.1-44.1v-88.3c0-24.7 20.3-44.1 44.1-44.1h88.3c24.7 0 44.1 20.3 44.1 44.1v88.3c0.1 23.8-19.3 44.1-44.1 44.1zM577 188.8c-19.4 0-35.3 15.9-35.3 35.3v88.3c0 19.4 15.9 35.3 35.3 35.3h88.3c19.4 0 35.3-15.9 35.3-35.3v-88.3c0-19.4-15.9-35.3-35.3-35.3H577zM665.3 338.9c15 0 26.5-11.5 26.5-26.5v-88.3c0-15-11.5-26.5-26.5-26.5H577c-15 0-26.5 11.5-26.5 26.5v88.3c0 15 11.5 26.5 26.5 26.5h88.3m0 17.7H577c-24.7 0-44.1-20.3-44.1-44.1v-88.3c0-24.7 20.3-44.1 44.1-44.1h88.3c24.7 0 44.1 20.3 44.1 44.1v88.3c0.1 24.7-20.2 44.1-44.1 44.1zM621.2 384c-9.7 0-18.5 3.5-24.7 10.6l-62.7 62.7c-7.1 7.1-10.6 15.9-10.6 24.7 0 9.7 3.5 18.5 10.6 24.7l62.7 62.7c7.1 7.1 15.9 10.6 24.7 10.6 8.8 0 18.5-3.5 24.7-10.6l62.7-62.7c14.1-14.1 14.1-36.2 0-50.3l-62.7-62.7c-6.2-6.2-15-9.7-24.7-9.7zM621.2 571.1c7.1 0 14.1-2.6 18.5-7.9l62.7-62.7c5.3-5.3 7.9-11.5 7.9-18.5s-2.6-14.1-7.9-18.5l-62.7-62.7c-5.3-5.3-11.5-7.9-18.5-7.9-7.1 0-14.1 2.6-18.5 7.9L540 463.5c-5.3 5.3-7.9 11.5-7.9 18.5s2.6 14.1 7.9 18.5l62.7 62.7c4.3 5.3 11.4 7.9 18.5 7.9m0 17.7c-11.5 0-23-4.4-30.9-13.2l-62.7-62.7c-16.8-16.8-16.8-45 0-62.7l62.7-62.7c8.8-8.8 20.3-13.2 30.9-13.2s23 4.4 30.9 13.2l62.7 62.7c16.8 16.8 16.8 45 0 62.7l-62.7 62.7c-8 8.8-19.5 13.2-30.9 13.2z"  horiz-adv-x="1024" />

    
    <glyph glyph-name="file_html" unicode="&#59047;" d="M748 712.5V896H96v-1024h836V712.5zM932 712H748V896M704 372.9c0-7 0-14.7-0.9-21.7H456.8c0-42.5 37.3-73.7 78-73.7 27.7 0 54.6 13.9 68.5 38.2h90.2c-24.3-68.5-88.5-114.5-161.3-114.5-26 0-52 6-75.5 18.2-24.3-12.1-57.2-25.1-84.1-25.1-36.4 0-50.3 21.7-50.3 56.4 0 20 4.3 39 10.4 58.1 2.6 12.1 17.3 37.3 23.4 49.4 26 46.8 59.9 93.7 101.5 129.2-32.1-13.9-68.5-49.4-91.1-75.5 17.3 77.2 86.7 132.7 165.7 132.7h10.4c26 12.2 63.3 25.2 92.7 25.2 33.8 0 64.2-13 64.2-52 0-20-7.8-42.5-16.5-61.6 14.1-25.2 21-54.7 21-83.3z m-14.7 136.2c0 24.3-17.3 38.2-39.9 38.2-18.2 0-38.2-7-54.6-14.7 35.6-13.9 64.2-38.2 83.2-69.4 6.1 13.8 11.3 31.1 11.3 45.9z m-340-262.8c0-25.1 14.7-38.2 39-38.2 19.1 0 39.9 7.8 56.4 18.2-35.6 20.8-61.6 52.9-74.6 91.1-9.5-20.8-20.8-48.5-20.8-71.1z m107.5 151.8h154.4c-0.9 40.7-38.2 70.2-77.2 70.2-39.9 0-76.3-29.5-77.2-70.2z"  horiz-adv-x="1024" />

    
    <glyph glyph-name="file_cad" unicode="&#59048;" d="M748 712.5V896H96v-1024h836V712.5zM932 712H748V896M678.4 339.1v35.7h-35.7V619h-6.5v-244.2h-35.7v-35.7h-37.9l-48.2 139.4H472l-47.9-139.4H272v-6.5h150l-29-84.3h44.1l19.2 54.9h74.3l19.2-54.9h44.1l-29.1 84.3h35.6v-35.7h35.7V137h6.5V296.9h35.7v35.7H754v6.5h-75.6z m-213.3 0.9l26 84 28.7-84h-54.7zM607 368.3h29.2v-29.2H607v29.2z m0-64.9v29.2h29.2v-29.2H607z m64.9 0h-29.2v29.2h29.2v-29.2z m0 35.7h-29.2v29.2h29.2v-29.2z"  horiz-adv-x="1024" />

    
    <glyph glyph-name="file_flash" unicode="&#59050;" d="M748 712.5V896H96v-1024h836V712.5zM932 712H748V896M474.9 387.1C426 256 380.6 250.6 338 250.5c0.1-11.1 0-76.8 0-76.8h5.9c29-0.9 137.2-0.1 201.1 160.1h104v76.6h-72.4s30.9 89.3 112.3 86.6v76.6c0.1 0-143.9 23.1-214-186.5z"  horiz-adv-x="1024" />

    
    <glyph glyph-name="file_iso" unicode="&#59051;" d="M748 712.5V896H96v-1024h836V712.5zM932 712H748V896M491.2 385.5c0 12.3 10 22.3 22.3 22.3s22.3-10 22.3-22.3-10-22.3-22.3-22.3-22.3 10-22.3 22.3z m22.3 58c-32 0-57.9-25.9-57.9-57.9s25.9-57.9 57.9-57.9 57.9 25.9 57.9 57.9c0 31.9-25.9 57.9-57.9 57.9z m-209.5-58C304 269.8 397.8 176 513.5 176S723 269.8 723 385.5 629.2 595 513.5 595 304 501.2 304 385.5z m209.5 93.6c51.7 0 93.6-41.9 93.6-93.6s-41.9-93.6-93.6-93.6-93.6 41.9-93.6 93.6 41.9 93.6 93.6 93.6z"  horiz-adv-x="1024" />

    
    <glyph glyph-name="file_cloud" unicode="&#59052;" d="M748 712.5V896H96v-1024h836V712.5zM932 712H748V896M650.8 427.6C637.7 492.2 581.4 541 513 541c-54.4 0-101.2-30.9-124.7-75.9-56.2-5.7-100.3-53.5-100.3-111.6 0-61.9 50.6-112.5 112.5-112.5h243.8c51.6 0 93.8 42.2 93.8 93.8-0.1 49.6-38.5 90-87.3 92.8z"  horiz-adv-x="1024" />

    


  </font>
</defs>
</svg>
