<?xml version="1.0" standalone="no"?><!DOCTYPE svg PUBLIC "-//W3C//DTD SVG 1.1//EN" "http://www.w3.org/Graphics/SVG/1.1/DTD/svg11.dtd"><svg t="1594623787819" class="icon" viewBox="0 0 1024 1024" version="1.1" xmlns="http://www.w3.org/2000/svg" p-id="15747" xmlns:xlink="http://www.w3.org/1999/xlink" width="200" height="200"><defs><style type="text/css"></style></defs><path d="M0 0m48.762365 0l926.47527 0q48.762365 0 48.762365 48.762365l0 926.47527q0 48.762365-48.762365 48.762365l-926.47527 0q-48.762365 0-48.762365-48.762365l0-926.47527q0-48.762365 48.762365-48.762365Z" fill="#78C6F4" p-id="15748"></path><path d="M0 950.85699h1024v48.762364C1024 1013.083774 1013.083774 1024 999.619354 1024H24.380646C10.916226 1024 0 1013.083774 0 999.619354v-48.762364z" fill="#5EB4E7" p-id="15749"></path><path d="M146.286021 292.572042m48.762365 0l422.601794 0q48.762365 0 48.762365 48.762365l0 341.33226q0 48.762365-48.762365 48.762364l-422.601794 0q-48.762365 0-48.762365-48.762364l0-341.33226q0-48.762365 48.762365-48.762365Z" fill="#69BBEC" p-id="15750"></path><path d="M709.62234 400.999044l132.808721-66.404361c12.04327-6.021635 26.687329-1.139925 32.710038 10.903346a24.380646 24.380646 0 0 1 2.573953 10.903346V667.599698c0 13.465493-10.916226 24.380646-24.381719 24.380646-3.784721 0-7.51792-0.880168-10.903346-2.573954l-132.808721-66.404361a48.762365 48.762365 0 0 1-26.954599-43.613383V444.612428a48.762365 48.762365 0 0 1 26.955673-43.613384z" fill="#69BBEC" p-id="15751"></path><path d="M146.286021 243.809677m48.762365 0l422.601794 0q48.762365 0 48.762365 48.762365l0 341.33226q0 48.762365-48.762365 48.762365l-422.601794 0q-48.762365 0-48.762365-48.762365l0-341.33226q0-48.762365 48.762365-48.762365Z" fill="#FFFFFF" p-id="15752"></path><path d="M709.62234 352.236679l132.808721-66.40436c12.04327-6.021635 26.687329-1.139925 32.710038 10.904419a24.380646 24.380646 0 0 1 2.573953 10.903346V618.83626c0 13.465493-10.916226 24.381719-24.381719 24.381719-3.784721 0-7.51792-0.881241-10.903346-2.573954l-132.808721-66.40436a48.762365 48.762365 0 0 1-26.954599-43.614457V395.851136a48.762365 48.762365 0 0 1 26.955673-43.614457z" fill="#FFFFFF" p-id="15753"></path><path d="M498.604277 488.552117l-120.937191 68.026231c-11.735212 6.601258-26.600386 2.438709-33.202717-9.296503a24.380646 24.380646 0 0 1-3.131036-11.953107V399.275203c0-13.465493 10.916226-24.380646 24.381719-24.380645 4.186164 0 8.303631 1.077669 11.953107 3.131035l120.936118 68.026231c11.735212 6.601258 15.897761 21.467505 9.295429 33.202717a24.380646 24.380646 0 0 1-9.295429 9.297576z" fill="#74C5F5" p-id="15754"></path></svg>